<svg xmlns="http://www.w3.org/2000/svg" width="1200" height="800" viewBox="0 0 1200 800">
  <rect width="1200" height="800" fill="#011B1F"/>
  
  <!-- Navbar -->
  <rect x="0" y="0" width="1200" height="60" fill="#032024"/>
  <circle cx="30" cy="30" r="20" fill="#FA3811"/>
  <text x="60" y="35" font-family="Arial" font-size="18" fill="#FFFFFF" font-weight="bold">Prompt Saver</text>
  
  <!-- Sidebar -->
  <rect x="0" y="60" width="200" height="740" fill="#032024"/>
  
  <!-- Main content area with table -->
  <rect x="220" y="80" width="960" height="60" fill="#01171A" rx="4" ry="4"/>
  <rect x="220" y="160" width="960" height="80" fill="#01171A" rx="4" ry="4"/>
  <rect x="220" y="260" width="960" height="80" fill="#01171A" rx="4" ry="4"/>
  <rect x="220" y="360" width="960" height="80" fill="#01171A" rx="4" ry="4"/>
  <rect x="220" y="460" width="960" height="80" fill="#01171A" rx="4" ry="4"/>
  
  <!-- Sidebar items -->
  <rect x="20" y="100" width="160" height="40" fill="#033238" rx="4" ry="4"/>
  <rect x="20" y="160" width="160" height="40" fill="#01171A" rx="4" ry="4"/>
  <rect x="20" y="220" width="160" height="40" fill="#01171A" rx="4" ry="4"/>
  
  <!-- Tag pills -->
  <rect x="240" y="190" width="80" height="24" fill="#FA3811" rx="12" ry="12"/>
  <rect x="340" y="190" width="60" height="24" fill="#6366F1" rx="12" ry="12"/>
  
  <rect x="240" y="290" width="70" height="24" fill="#10B981" rx="12" ry="12"/>
  <rect x="330" y="290" width="90" height="24" fill="#FBBF24" rx="12" ry="12"/>
  
  <rect x="240" y="390" width="90" height="24" fill="#EC4899" rx="12" ry="12"/>
  
  <rect x="240" y="490" width="60" height="24" fill="#8B5CF6" rx="12" ry="12"/>
  <rect x="320" y="490" width="70" height="24" fill="#14B8A6" rx="12" ry="12"/>
  
  <!-- Table header -->
  <text x="240" y="110" font-family="Arial" font-size="16" fill="#FFFFFF" font-weight="bold">Title</text>
  <text x="600" y="110" font-family="Arial" font-size="16" fill="#FFFFFF" font-weight="bold">Tags</text>
  <text x="1000" y="110" font-family="Arial" font-size="16" fill="#FFFFFF" font-weight="bold">Actions</text>
  
  <!-- New Prompt button -->
  <rect x="1000" y="20" width="140" height="40" fill="#FA3811" rx="4" ry="4"/>
  <text x="1025" y="45" font-family="Arial" font-size="16" fill="#FFFFFF" font-weight="bold">New Prompt</text>
  
  <!-- Search box -->
  <rect x="220" y="20" width="300" height="40" fill="#01171A" rx="4" ry="4"/>
  <text x="250" y="45" font-family="Arial" font-size="14" fill="#94A3B8">Search prompts...</text>
</svg>
